<svg xmlns="http://www.w3.org/2000/svg" width="69.796" height="40.827" viewBox="0 0 69.796 40.827"><defs><style>.a{fill:#9c0008;}</style></defs><g transform="translate(-170.265 -193.864)"><path class="a" d="M386.921,261.842a1.626,1.626,0,0,0-.648.644,1.749,1.749,0,0,0,0,1.748,1.648,1.648,0,0,0,.644.644,1.753,1.753,0,0,0,1.739,0,1.656,1.656,0,0,0,.645-.644,1.747,1.747,0,0,0-.006-1.748,1.625,1.625,0,0,0-.648-.644,1.766,1.766,0,0,0-1.722,0Zm1.554.3a1.307,1.307,0,0,1,.521.518,1.4,1.4,0,0,1,0,1.406,1.344,1.344,0,0,1-.519.52,1.393,1.393,0,0,1-1.4,0,1.325,1.325,0,0,1-.518-.52,1.407,1.407,0,0,1,0-1.406,1.32,1.32,0,0,1,.521-.518,1.417,1.417,0,0,1,1.381,0ZM387.37,264.3v-.76h.1a.418.418,0,0,1,.26.077,1.3,1.3,0,0,1,.26.382l.154.3h.466l-.218-.373c-.079-.132-.122-.207-.137-.226a1.093,1.093,0,0,0-.125-.142.488.488,0,0,0-.13-.069.6.6,0,0,0,.368-.177.486.486,0,0,0,.131-.343.52.52,0,0,0-.07-.266.465.465,0,0,0-.173-.178.727.727,0,0,0-.291-.073c-.044,0-.239,0-.592,0h-.376V264.3Zm0-1.558h.152a1.81,1.81,0,0,1,.4.026.236.236,0,0,1,.125.087.221.221,0,0,1,.045.137.233.233,0,0,1-.046.143.236.236,0,0,1-.124.087,1.78,1.78,0,0,1-.405.026h-.152v-.506Z" transform="translate(-149.467 -46.934)"/><path class="a" d="M313.508,303.659l-1.539-7.164a14.338,14.338,0,0,0-.89,1.564,7.443,7.443,0,0,0-.536,1.461,6.175,6.175,0,0,0-.181,1.487,11.993,11.993,0,0,0,.095,1.294c.063.562.1.825.105.961v.707a.331.331,0,0,1-.2.3.781.781,0,0,1-.31.057,3.547,3.547,0,0,1-.507-.057c-.086-.007-.206-.012-.369-.012-.2,0-.348,0-.452.012-.151.018-.249.029-.294.029a.4.4,0,0,1-.375-.2,1.85,1.85,0,0,1-.119-.813,5.286,5.286,0,0,1,.28-1.782,6.568,6.568,0,0,1,.7-1.478q.425-.651,1.235-1.733a16.666,16.666,0,0,0,1.136-1.692,2.5,2.5,0,0,0,.346-1.27c-.008-.41-.822-.364-1.072-.349v-.592h4.03v.592H313.8l1.789,8.276,1.567-8.276h-.624v-.592h3.794v.592h-.918l1.894,8.685h.969v.592H318.5v-.592h.619l-1.594-7.419-1.379,7.419h.747v.592h-4.116v-.592Z" transform="translate(-95.365 -69.63)"/><path class="a" d="M176.209,282.161V265.627H174.83a1.7,1.7,0,0,0-.939.228,2.185,2.185,0,0,0-.667,1.064,17.466,17.466,0,0,0-.663,2.625,8.94,8.94,0,0,1-.267,1.079.4.4,0,0,1-.421.265.455.455,0,0,1-.475-.332,3.522,3.522,0,0,1-.129-.907,9.7,9.7,0,0,0-.374-2.332c-.056-.206-.175-.572-.356-1.1a4.229,4.229,0,0,1-.274-1.077,1.161,1.161,0,0,1,.236-.71.8.8,0,0,1,.687-.314,2.534,2.534,0,0,1,.571.125,7.479,7.479,0,0,0,.911.2,8.33,8.33,0,0,0,1.305.081c.111,0,.243,0,.4-.014s.275-.013.358-.013h6.187c.091,0,.215.005.368.013s.283.014.386.014a8.394,8.394,0,0,0,1.31-.081,7.478,7.478,0,0,0,.916-.2,2.511,2.511,0,0,1,.567-.125.787.787,0,0,1,.684.314,1.158,1.158,0,0,1,.232.71,3.746,3.746,0,0,1-.259,1.046c-.175.492-.3.869-.368,1.128a9.645,9.645,0,0,0-.4,2.332c0,.827-.195,1.238-.58,1.238a.421.421,0,0,1-.379-.209,1.611,1.611,0,0,1-.191-.5c-.043-.187-.142-.694-.306-1.519a8.435,8.435,0,0,0-.636-2.035,1.653,1.653,0,0,0-.77-.818,3.064,3.064,0,0,0-1.157-.178h-.9v16.534h1.729v1.128h-6.691v-1.128Z" transform="translate(0 -48.666)"/><path class="a" d="M280.073,300.3v.577c1.209,0,.553.816-.079,1.475a2.441,2.441,0,0,1-1.838.639,1.211,1.211,0,0,1-.521-.095,2.04,2.04,0,0,0,.142-.749,5.263,5.263,0,0,0-.094-1.108q-.093-.429-.317-1.178a11.659,11.659,0,0,1-.354-1.6h6.616v-.592h0c-.124-1.177-.418-2.735-1.453-3.493a3.925,3.925,0,0,0-1.43-.675,6.122,6.122,0,0,0-1.459-.183,6.184,6.184,0,0,0-2.254.427,4,4,0,0,0-1.833,1.447,4.457,4.457,0,0,0-.736,2.664,3.794,3.794,0,0,0,.113.983,3.392,3.392,0,0,0,.435.938,14.37,14.37,0,0,0,.971,1.311,5.323,5.323,0,0,1,.643.934,2,2,0,0,1,.218.93c0,.075-.009.2-.026.368a5.622,5.622,0,0,0,1.1.2c.434.043.841.064,1.217.064a3.88,3.88,0,0,0,1.61-.356,5.113,5.113,0,0,0,1.441-.973c.62-.59.729-1.354,1.589-1.378V300.3Zm-3.144-3.3a5.289,5.289,0,0,1,.2-1.475,2.63,2.63,0,0,1,.656-1.164,1.562,1.562,0,0,1,1.158-.453,1.656,1.656,0,0,1,1.309.5,4.486,4.486,0,0,1,.727,3.259h-4.017a5.905,5.905,0,0,1-.038-.667Z" transform="translate(-72.178 -68.891)"/><path class="a" d="M252.121,295.124a2.811,2.811,0,0,0-1.225-1.02,4.584,4.584,0,0,0-1.925-.372,3.793,3.793,0,0,0-2.057.58,3.315,3.315,0,0,0-1.34,1.592q-.043,1.044-.043,2.146v4.23c0,1.1-.637.906-1.169.928v.593h4.525v-.593c-.408-.049-1.182.19-1.171-.967v-1.711l.97-1.267c.062.032.165.082.311.155a6.49,6.49,0,0,0,.608.288,1.6,1.6,0,0,0,.55.077,2.154,2.154,0,0,0,1.217-.359c.8-.4,1.166-2.11,1.166-2.871a2.585,2.585,0,0,0-.418-1.431Zm-2.356,3.29a.812.812,0,0,1-.627.369.637.637,0,0,1-.232-.067,1.348,1.348,0,0,1-.287-.171l-.9,1.142v-2.739a11.25,11.25,0,0,1,.065-1.349,1.988,1.988,0,0,1,.318-.9.869.869,0,0,1,.77-.37.932.932,0,0,1,.938.591,4.218,4.218,0,0,1,.248,1.611,4.611,4.611,0,0,1-.292,1.888Z" transform="translate(-51.328 -69.18)"/><path class="a" d="M216.936,300.3v.577c1.208,0,.553.816-.08,1.475a2.439,2.439,0,0,1-1.837.639,1.208,1.208,0,0,1-.52-.095,2.077,2.077,0,0,0,.141-.749,5.309,5.309,0,0,0-.094-1.108q-.091-.429-.317-1.178a11.7,11.7,0,0,1-.354-1.6h6.615v-.592h0c-.122-1.177-.415-2.735-1.452-3.493a3.906,3.906,0,0,0-1.428-.675,6.063,6.063,0,0,0-3.715.244,4,4,0,0,0-1.833,1.447,4.457,4.457,0,0,0-.737,2.664,3.806,3.806,0,0,0,.114.983,3.435,3.435,0,0,0,.435.938,14.03,14.03,0,0,0,.973,1.311,5.313,5.313,0,0,1,.642.934,1.993,1.993,0,0,1,.218.93c0,.075-.009.2-.026.368a5.629,5.629,0,0,0,1.095.2c.434.043.841.064,1.217.064a3.878,3.878,0,0,0,1.61-.356,5.1,5.1,0,0,0,1.44-.973c.621-.59.729-1.354,1.588-1.378V300.3Zm-3.144-3.3a5.312,5.312,0,0,1,.2-1.475,2.643,2.643,0,0,1,.654-1.164,1.569,1.569,0,0,1,1.159-.453,1.66,1.66,0,0,1,1.31.5,4.487,4.487,0,0,1,.728,3.259H213.83a5.692,5.692,0,0,1-.038-.667Z" transform="translate(-28.442 -68.891)"/><path class="a" d="M361.692,274.706c-.138-.293-.454-.436-.949-.436-.353.035-.614.053-.776.053a4.929,4.929,0,0,1-2.18-.589,5.785,5.785,0,0,1-1.947-1.545l-.015-6.544h1.57l.027-1.178h-8.25a4.6,4.6,0,0,1-1.064-.229,3,3,0,0,0-.532-.114.86.86,0,0,0-.55.171,1.119,1.119,0,0,0-.374.853,8.754,8.754,0,0,0,.566,1.961,8.918,8.918,0,0,1,.407,2.027,12.014,12.014,0,0,0,.143,1.368.476.476,0,0,0,.493.387.379.379,0,0,0,.4-.222,5.249,5.249,0,0,0,.237-.887c.206-1.059.388-1.782.6-2.537.475-1.643,1.13-1.6,1.842-1.6h1.249l.012,16.514h-1.737v1.133h9.9a1.538,1.538,0,0,0,.621-.1.819.819,0,0,0,.373-.518,4.194,4.194,0,0,0,.143-1.269v-5.377a3.239,3.239,0,0,0-.206-1.32Zm-2.729,5.944q0,.994-.395,1.251a1.86,1.86,0,0,1-1.025.257h-1.7v-8.485a5.985,5.985,0,0,0,2.12,1.623,1.759,1.759,0,0,1,.826.545,2.268,2.268,0,0,1,.159.941c0,.184,0,.3.008.343a2.752,2.752,0,0,1,.009.3v3.222Z" transform="translate(-122.185 -48.668)"/><path class="a" d="M243.456,278.789a3.208,3.208,0,0,1,.942-2.273v0a3.212,3.212,0,0,1,4.547,0h0a3.21,3.21,0,0,1,.943,2.275h-1.121a2.091,2.091,0,0,0-.614-1.485h0a2.1,2.1,0,0,0-2.964,0h0a2.093,2.093,0,0,0-.614,1.485Z" transform="translate(-50.7 -56.598)"/><path class="a" d="M302.144,278.789a3.2,3.2,0,0,1,.943-2.273v0a3.211,3.211,0,0,1,4.546,0h0a3.2,3.2,0,0,1,.941,2.275h-1.119a2.094,2.094,0,0,0-.615-1.485h0a2.1,2.1,0,0,0-2.962,0h0a2.107,2.107,0,0,0-.612,1.485Z" transform="translate(-91.353 -56.598)"/><path class="a" d="M272.8,278.789a3.2,3.2,0,0,1,.943-2.273v0a3.215,3.215,0,0,1,5.489,2.275h-1.121a2.1,2.1,0,0,0-3.577-1.485h0a2.1,2.1,0,0,0-.613,1.485Z" transform="translate(-71.027 -56.598)"/><path class="a" d="M278.93,249.748l-.645.981,1.761.363-1.809.373.45.931-.854-.5-.354,1.859-.365-1.921-1.087.6.647-.982-1.761-.363,1.809-.373-.45-.931.853.5.354-1.858.367,1.923,1.086-.6Z" transform="translate(-72.489 -37.795)"/><path class="a" d="M256.5,210.867v-2.5a.853.853,0,1,0-.421,0v.108h-4.719V203.63h2.419l-4.935-2.118-1.939-2.933-1.988-3.01a.853.853,0,1,0-.056,0l-1.988,3.01-1.939,2.933-4.935,2.118h2.419v4.841h-4.719v-.108a.856.856,0,1,0-.421,0v2.5l-5.415,4.907v2.1h1.528v4.319h.837v-4.319c3.826,0,7.678,0,11.5,0a7.72,7.72,0,0,1-2.117-3.179c-.377-1.373.192-2.658,1.722-4.038a21.462,21.462,0,0,1,1.937-1.5l.045-.032a10.044,10.044,0,0,0,1.576-1.259,10.039,10.039,0,0,0,1.576,1.259l.045.032a21.5,21.5,0,0,1,1.937,1.5c1.53,1.38,2.1,2.665,1.722,4.038a7.723,7.723,0,0,1-2.117,3.179c3.819,0,7.671,0,11.5,0v4.319h.837v-4.319h1.529v-2.1Zm-1.207-1.793h.673v1.793h-.673Zm-1.309,0h.674v1.793h-.674Zm-1.27,0h.674v1.793h-.674Zm-1.308,0h.675v1.794h-.185l-.49-.51Zm-11.863-5.186h10.695v4.378h-1.484c-1.4-1.16-3.019-2.337-3.608-3.593v0l-.256-.537-.256.537v0c-.589,1.257-2.21,2.433-3.608,3.593h-1.483Zm11.192,5.186v.666l-.675-.58v-.085Zm-11.689,0h.674v.085l-.674.58Zm-1.346,0h.675v1.284l-.49.51h-.185Zm-1.307,0h.674v1.793h-.674Zm-1.27,0h.673v1.793h-.673Zm-1.308,0h.673v1.793h-.673Zm-5.289,8.239v-.981h9.192a9.418,9.418,0,0,0,.988.981Zm21.8,0h-1.046s.132-.134.167-.176c2.565-3.019,1.268-5.256-.591-6.935a22.3,22.3,0,0,0-2.037-1.577c-.874-.623-1.577-1.123-1.635-1.447l-.3-1.4-.3,1.4c-.058.324-.761.823-1.635,1.447a22.341,22.341,0,0,0-2.037,1.577c-1.859,1.678-3.155,3.915-.591,6.935.036.042.167.176.167.176h-1.046s-.154-.119-.228-.179c-2.549-2.044-2.417-3.726-1.258-5.264A19.041,19.041,0,0,1,241,208.983c1.411-1.166,3.1-2.344,3.877-3.652l.006.009.006-.009c.774,1.308,2.466,2.485,3.876,3.652a19.031,19.031,0,0,1,3.043,2.887c1.159,1.538,1.291,3.22-1.258,5.264C250.478,217.193,250.323,217.312,250.323,217.312Zm10.926,0H251.07a9.482,9.482,0,0,0,.988-.981h9.192Z" transform="translate(-39.895 0)"/></g></svg>